<svg id="Layer_1" data-name="Layer 1" xmlns="http://www.w3.org/2000/svg" viewBox="0 0 247.42 226.06"><path d="M244.34 117.85c0 55.82-47.4 103.24-103.24 103.24S37.87 173.9 37.87 117.85 85 14.62 141.1 14.62c55.85 0 103.24 47.47 103.24 103.23z" transform="translate(-7.18 -5.27)" fill="#2a9fd9"/><path d="M136.62 25.34V199.8h-58.3a103.41 103.41 0 0 1-32-40.95v-82a102.78 102.78 0 0 1 11.86-20.49c.54-.73 1.1-1.45 1.66-2.17q1.44-1.84 3-3.61 3-3.48 6.25-6.65a102.91 102.91 0 0 1 13.4-11c.67-.47 1.35-.92 2-1.37a101.43 101.43 0 0 1 10.77-6.18z" transform="translate(-7.18 -5.27)" fill="#2c92d0"/><path d="M136.58 132.21v5.34L82.46 32.89c.67-.47 1.35-.92 2-1.37" transform="translate(-7.18 -5.27)" fill="#2a9fd9"/><path d="M237.28 80.26v75.17a102.24 102.24 0 0 1-9.49 18.5c-.79 1.22-1.61 2.42-2.45 3.61-.1.14-.19.28-.3.41l-.8 1.11c-.27.37-.54.74-.83 1.1a96.75 96.75 0 0 1-7.11 8.42q-1.84 2-3.8 3.83a101.19 101.19 0 0 1-8.62 7.39H147V25.34h39.94a103.54 103.54 0 0 1 50.34 54.92z" transform="translate(-7.18 -5.27)" fill="#2c92d0"/><path d="M136.58 174.49v16.95l-.74.38-73-141.24q3-3.48 6.25-6.65zM135.14 199.8h-2.77L58.18 56.36c.54-.73 1.1-1.45 1.66-2.17zM84.5 31.52l52.08 100.69M160.64 25.35l72.28 139.74a100.65 100.65 0 0 1-5.13 8.84L151 25.35zM225 177.95l-.8 1.11c-.27.37-.54.74-.83 1.1L147.5 33.38V28z" transform="translate(-7.18 -5.27)" fill="#2a9fd9"/><path fill="#2a9fd9" d="M230.6 126.94v5.34L172.58 20.07h2.75l55.27 106.87z"/><path d="M203.88 200.3H147a.5.5 0 0 1-.5-.5V25.34a.5.5 0 0 1 .5-.5h39.94a.49.49 0 0 1 .22.05 103.61 103.61 0 0 1 50.58 55.19.5.5 0 0 1 0 .18v75.17a.5.5 0 0 1 0 .18 102.57 102.57 0 0 1-9.54 18.59c-.73 1.13-1.54 2.32-2.46 3.63l-.08.12-.24.33c-.23.34-.51.71-.78 1.08s-.55.75-.84 1.12a97.79 97.79 0 0 1-7.14 8.45 99.12 99.12 0 0 1-3.82 3.85 102.07 102.07 0 0 1-8.66 7.43.5.5 0 0 1-.3.09zm-56.38-1h56.21a101.61 101.61 0 0 0 8.44-7.25 104.5 104.5 0 0 0 3.78-3.81 96.88 96.88 0 0 0 7.07-8.38c.29-.37.56-.73.83-1.09l.79-1.1c.1-.12.16-.2.21-.29l.09-.13c.91-1.3 1.71-2.47 2.43-3.59a101.56 101.56 0 0 0 9.41-18.32v-75a102.61 102.61 0 0 0-50-54.51H147.5zM136.62 200.3h-58.3a.5.5 0 0 1-.3-.1A104.06 104.06 0 0 1 45.88 159a.5.5 0 0 1 0-.2v-82a.5.5 0 0 1 0-.2 103.43 103.43 0 0 1 11.9-20.61c.54-.73 1.1-1.46 1.67-2.18.93-1.2 1.94-2.42 3-3.63 2-2.3 4.08-4.55 6.28-6.68a103.78 103.78 0 0 1 13.45-11.03c.67-.47 1.36-.92 2.05-1.38a102.41 102.41 0 0 1 10.82-6.21.5.5 0 0 1 .22-.05h41.35a.5.5 0 0 1 .5.5V199.8a.5.5 0 0 1-.5.5zm-58.13-1h57.63V25.84H95.39a101.17 101.17 0 0 0-10.61 6.1c-.69.45-1.36.9-2 1.36a102.81 102.81 0 0 0-13.34 11 94.468 94.468 0 0 0-6.22 6.62c-1 1.2-2 2.41-3 3.59-.56.72-1.11 1.43-1.65 2.16A102.45 102.45 0 0 0 46.84 77v81.77a103.06 103.06 0 0 0 31.65 40.53z" transform="translate(-7.18 -5.27)" fill="#2c86c7"/><path d="M209.2 165.74a64 64 0 0 0-4.68-6.87 26.77 26.77 0 0 0-7.09-6.73 12.48 12.48 0 0 0-9.42-1.68 5.86 5.86 0 0 0-2.29 1.11 5.21 5.21 0 0 0-1.24 5.7 9.08 9.08 0 0 0 4.12 4.49 39.54 39.54 0 0 0 5.71 2.44 56.87 56.87 0 0 1 12.57 6.8" transform="translate(-7.18 -5.27)" fill="#2a9fd9"/><path d="M206.59 171.38a56.29 56.29 0 0 0-12.45-6.72l-1.18-.45a29.93 29.93 0 0 1-4.6-2 9.66 9.66 0 0 1-4.34-4.75 5.68 5.68 0 0 1 1.39-6.26 6.27 6.27 0 0 1 2.49-1.21 13 13 0 0 1 9.8 1.73 27.5 27.5 0 0 1 7.23 6.85 64.81 64.81 0 0 1 4.72 6.92l-.86.51a63.77 63.77 0 0 0-4.65-6.82 26.58 26.58 0 0 0-7-6.61 12 12 0 0 0-9-1.62 5.31 5.31 0 0 0-2.1 1 4.73 4.73 0 0 0-1.09 5.15 8.68 8.68 0 0 0 3.91 4.23 29.21 29.21 0 0 0 4.45 2l1.19.45a57.3 57.3 0 0 1 12.67 6.84z" transform="translate(-7.18 -5.27)" fill="#2c86c7"/><path d="M207.83 168.17a.5.5 0 0 1-.39-.19c-6.22-7.7-16.92-11.29-17-11.32a.5.5 0 0 1 .31-.95c.45.15 11.09 3.72 17.49 11.64a.5.5 0 0 1-.39.81z" transform="translate(-7.18 -5.27)" fill="#2c86c7"/><path d="M202 60.39c-.86-2.26-1.84-4.7-4.91-5.09a5.74 5.74 0 0 0-4 1.06c-3 2.15-3.79 5.87-3.87 9.36a30.93 30.93 0 0 0 4.74 17.13c1.58 2.5 3.57 4.88 3.61 8a4.86 4.86 0 0 1-1.21 3.36c-2.9 3.15-6.72-.65-9.65.9a4.61 4.61 0 0 0-2.09 3.37c-1.18 6.51 4.54 12.1 10 15.78 3.31 2.22 7 4.54 7.7 8.72a5.23 5.23 0 0 1-2.43 5.43c-3.81 2.17-6-2.93-9.92-.39a5.79 5.79 0 0 0-2.4 6c.92 4.58 5 7.1 8.18 10.14a29.18 29.18 0 0 1 8.37 14.89c1.21 5.59 1.49 12.62 6.68 15a202.69 202.69 0 0 0 12.73-50.26c.43-3.58-.48-8.62-4.08-8.54-1.54 0-3 1.17-4.55-.34a4 4 0 0 1-1.07-3c.64-11.39 4.17-22.71 2.82-34-.28-2.31-1.6-5.23-3.89-4.82a.46.46 0 0 0-.17.07c-2.46 1.58-5.66 1-6.72-1.73-1.46-3.67-2.59-7.55-3.87-11.04z" transform="translate(-7.18 -5.27)" fill="#2a9fd9"/><path d="m211 174.76-.48-.22c-4.54-2.1-5.48-7.35-6.4-12.43-.18-1-.36-2-.56-2.94a28.76 28.76 0 0 0-8.23-14.64c-.66-.63-1.36-1.23-2.06-1.84-2.71-2.35-5.5-4.77-6.27-8.57a6.3 6.3 0 0 1 2.62-6.53c2.24-1.45 4-.64 5.6.08s2.72 1.23 4.35.3a4.7 4.7 0 0 0 2.19-4.91c-.65-3.82-3.94-6-7.12-8.15l-.37-.25c-5.37-3.6-11.5-9.35-10.25-16.29a5.18 5.18 0 0 1 2.35-3.73c1.44-.76 3-.4 4.51 0 1.83.42 3.56.82 5-.75a4.37 4.37 0 0 0 1.08-3c0-2.45-1.34-4.4-2.71-6.47-.28-.42-.56-.84-.82-1.26a31.55 31.55 0 0 1-4.82-17.41c.11-4.67 1.45-7.86 4.08-9.75a6.27 6.27 0 0 1 4.38-1.15c3.43.43 4.48 3.19 5.32 5.41.62 1.64 1.21 3.39 1.78 5.09.66 2 1.34 4 2.09 5.91a3.42 3.42 0 0 0 2.18 2.09 4.55 4.55 0 0 0 3.8-.6 1 1 0 0 1 .35-.14 2.78 2.78 0 0 1 2.21.53 7.15 7.15 0 0 1 2.27 4.72c.86 7.19-.24 14.46-1.3 21.5-.63 4.14-1.27 8.42-1.51 12.64a3.44 3.44 0 0 0 .93 2.64c.87.87 1.69.67 2.73.43a7 7 0 0 1 1.46-.24 3.68 3.68 0 0 1 2.89 1.25c1.72 1.9 2 5.42 1.7 7.85a203 203 0 0 1-12.76 50.39zm-18.84-47a3.59 3.59 0 0 0-2 .65 5.29 5.29 0 0 0-2.18 5.49c.7 3.46 3.24 5.67 5.94 8 .71.62 1.42 1.23 2.1 1.87a29.75 29.75 0 0 1 8.55 15.23c.21 1 .39 2 .57 3 .83 4.63 1.7 9.42 5.36 11.46a202 202 0 0 0 12.5-49.7c.29-2.4 0-5.52-1.45-7.06a2.63 2.63 0 0 0-2.12-.92 6.2 6.2 0 0 0-1.25.21c-1.13.27-2.4.57-3.66-.7a4.44 4.44 0 0 1-1.22-3.4c.24-4.26.89-8.56 1.52-12.73 1.05-7 2.14-14.18 1.3-21.23a6.31 6.31 0 0 0-1.87-4 1.79 1.79 0 0 0-1.44-.35 5.52 5.52 0 0 1-4.64.71 4.45 4.45 0 0 1-2.8-2.67c-.76-2-1.44-4-2.1-6-.59-1.77-1.15-3.43-1.77-5.05-.78-2.07-1.67-4.41-4.51-4.77a5.27 5.27 0 0 0-3.67 1c-2.36 1.69-3.56 4.63-3.66 9a30.54 30.54 0 0 0 4.66 16.85c.26.42.54.83.81 1.24 1.4 2.1 2.84 4.27 2.88 7a5.38 5.38 0 0 1-1.34 3.7c-1.84 2-4 1.5-6 1-1.39-.32-2.71-.63-3.82 0a4.22 4.22 0 0 0-1.83 3c-1.16 6.41 4.7 11.84 9.82 15.28l.37.25c3.2 2.14 6.83 4.57 7.55 8.81a5.71 5.71 0 0 1-2.68 5.95c-2.08 1.18-3.77.42-5.26-.26a6.53 6.53 0 0 0-2.62-.83z" transform="translate(-7.18 -5.27)" fill="#2c86c7"/><path d="M212.87 161.9a.5.5 0 0 1-.46-.54c1.55-20-3.76-50.59-16.73-96.4a.5.5 0 0 1 1-.27c13 45.93 18.33 76.67 16.76 96.75a.5.5 0 0 1-.57.46z" transform="translate(-7.18 -5.27)" fill="#2c86c7"/><path d="M210.88 171.67c1-19.32 2-38.84 7.33-57.46a44.3 44.3 0 0 1 5.12-12.29 19.28 19.28 0 0 1 10.23-8.18 8.88 8.88 0 0 1 4.08-.36c3.76.67 5.32 5.6 5.42 9.42a21.06 21.06 0 0 1-2.23 10.05c-8.88 19.81-17.38 39.93-22.31 61.07" transform="translate(-7.18 -5.27)" fill="#2a9fd9"/><path d="m219 174-1-.23c5.08-21.79 14.19-43 22.34-61.16a20.74 20.74 0 0 0 2.19-9.83c-.11-3.89-1.73-8.35-5-8.94a8.27 8.27 0 0 0-3.85.35 18.75 18.75 0 0 0-10 8 44.27 44.27 0 0 0-5.06 12.16c-5.3 18.65-6.32 38.32-7.31 57.35l-1-.05c1-19.08 2-38.81 7.35-57.57a45.15 45.15 0 0 1 5.19-12.43 19.74 19.74 0 0 1 10.5-8.39 9.24 9.24 0 0 1 4.31-.38c3.86.69 5.71 5.47 5.84 9.9a21.65 21.65 0 0 1-2.28 10.27c-8.05 18.12-17.15 39.27-22.22 60.95z" transform="translate(-7.18 -5.27)" fill="#2c86c7"/><path d="M214.85 174.19a.5.5 0 0 1-.46-.54c2.71-34.18 17.4-68.9 17.54-69.25a.5.5 0 0 1 .92.39c-.15.35-14.78 34.93-17.47 68.94a.5.5 0 0 1-.53.46zM205.68 98.48h-.15a.5.5 0 0 1-.33-.63 44.89 44.89 0 0 0 2-11.79.47.47 0 0 1 .52-.48.5.5 0 0 1 .48.52 46 46 0 0 1-2.07 12 .5.5 0 0 1-.45.38zM207.34 113.38a.49.49 0 0 1-.18 0A23.91 23.91 0 0 1 197 105.8a.5.5 0 1 1 .79-.62 22.91 22.91 0 0 0 9.71 7.23.5.5 0 0 1-.18 1zM211.84 148a.5.5 0 0 1-.48-.37A8.16 8.16 0 0 0 209 144a46.83 46.83 0 0 0-4.53-3.7 51.34 51.34 0 0 1-4.31-3.48.5.5 0 0 1 .68-.73 50.63 50.63 0 0 0 4.22 3.41 47.59 47.59 0 0 1 4.63 3.78 9.07 9.07 0 0 1 2.67 4 .5.5 0 0 1-.36.61zM195.63 163a.5.5 0 0 1-.16-1 21.31 21.31 0 0 1 4.3-1 .51.51 0 0 1 .55.44.5.5 0 0 1-.44.55 20.16 20.16 0 0 0-4.1.91z" transform="translate(-7.18 -5.27)" fill="#2c86c7"/><path d="M141.57 222.15A103.85 103.85 0 1 1 245.42 118.3a104 104 0 0 1-103.85 103.85zm0-205.7A101.85 101.85 0 1 0 243.42 118.3 102 102 0 0 0 141.57 16.45z" transform="translate(-7.18 -5.27)" fill="#133456"/><path d="M141.57 231.33a113 113 0 1 1 113-113 113.16 113.16 0 0 1-113 113zm0-224.06a111 111 0 1 0 111 111 111.15 111.15 0 0 0-111-111z" transform="translate(-7.18 -5.27)" fill="#299ed8"/><path d="M56.71 169.51c-7.32-2.63-10.71-7.26-11.93-9.35a1.29 1.29 0 0 1 .41-1.72l.93-.62a1.29 1.29 0 0 1 1.66.18c1.54 1.6 6.74 4.23 13.09 5.78" transform="translate(-7.18 -5.27)" fill="#f7e2cc"/><path d="M56.71 170.51a1 1 0 0 1-.34-.06 23.29 23.29 0 0 1-12.46-9.79 2.29 2.29 0 0 1 .72-3.05l.93-.62a2.29 2.29 0 0 1 2.93.31c1.23 1.28 6.09 3.91 12.61 5.5a1 1 0 1 1-.47 1.94c-6.56-1.6-11.89-4.32-13.57-6.05a.3.3 0 0 0-.38 0l-.93.63a.29.29 0 0 0-.1.39A21.27 21.27 0 0 0 57 168.56a1 1 0 0 1-.34 1.94z" transform="translate(-7.18 -5.27)" fill="#133456"/><path d="M59.93 158.32h.06a1.9 1.9 0 0 1 2.49.28 28.1 28.1 0 0 0 11.14 7l-10.9-.15a8 8 0 0 1-3.66-4.45 2.44 2.44 0 0 1 .87-2.68z" transform="translate(-7.18 -5.27)" fill="#f7e2cc"/><path d="m73.61 166.59-10.9-.15a1 1 0 0 1-.45-.11 9 9 0 0 1-4.16-5 3.44 3.44 0 0 1 1.26-3.78h.06a2.9 2.9 0 0 1 3.78.4 27.06 27.06 0 0 0 10.73 6.77 1 1 0 0 1-.31 2zM63 164.44l5.68.08a29.74 29.74 0 0 1-6.91-5.26.91.91 0 0 0-1.21-.15l-.63-.78.57.82a1.44 1.44 0 0 0-.48 1.57 7 7 0 0 0 2.98 3.72zm-3.06-6.12z" transform="translate(-7.18 -5.27)" fill="#133456"/><path d="M154.56 143.79c9.61 1.54 22.78 4.58 33.95 10.49 4.41-2.81 7.06-9 3.58-12.14-4.75-4.31-1.9-52.34-1.9-52.34a8.42 8.42 0 0 1-7 4v1.47s-8.67 30.61-28.79 41.44c-.02-.64.16 7.08.16 7.08z" transform="translate(-7.18 -5.27)" fill="#454545"/><path d="M188.51 155.28a1 1 0 0 1-.47-.12c-11.21-5.93-24.48-8.92-33.64-10.38a1 1 0 0 1-.84-1c-.06-2.5-.15-6.24-.18-6.93a1 1 0 0 1 0-.13 1.06 1.06 0 0 1 .77-1c18.73-10.28 27.41-38.5 28-40.58v-1.29a1 1 0 0 1 1-1 7.43 7.43 0 0 0 6.18-3.58 1 1 0 0 1 1.85.59c-1.09 18.39-1.63 48.64 1.57 51.54a6 6 0 0 1 1.91 5.13 12.2 12.2 0 0 1-5.62 8.6 1 1 0 0 1-.53.15zm-33-12.34c9.12 1.51 21.9 4.48 32.9 10.18a10.15 10.15 0 0 0 4.23-6.76 4 4 0 0 0-1.25-3.48c-1.42-1.29-3.28-5.64-3.06-28.53.08-8.77.46-17.36.68-21.7a9.3 9.3 0 0 1-4.86 2.13v.53a1 1 0 0 1-.06.35 101.25 101.25 0 0 1-6.9 16.77c-4.26 8.2-11.49 19.12-21.83 24.91 0 .66.06 1.58.1 2.88zM132.65 137.05v8.36c-5.21.94-13.84 3-15.84 6.41-3.18 5.42-12.88 11.56-12.88 11.56s3.8-14.63-2.34-12-19.31-.88-10.53-12.59c5.27-7 8.74-22.15 10.67-33.13a7.47 7.47 0 0 0 5.37 2.28 5.61 5.61 0 0 0 .8-.06v2.42c0 8.28 13.78 20.1 24.75 26.75z" transform="translate(-7.18 -5.27)" fill="#454545"/><path d="M103.93 164.38a1 1 0 0 1-1-1.25c1-3.71 1.76-9.75.41-10.91-.26-.23-.73-.2-1.4.08-4.05 1.74-10.69 1-13.5-2.55-1.61-2-2.61-5.71 1.77-11.55 5.12-6.82 8.53-21.55 10.49-32.71a1 1 0 0 1 1.7-.52 6.44 6.44 0 0 0 4.65 2 4.67 4.67 0 0 0 .66 0 1 1 0 0 1 1.14 1v2.42c0 5.55 8.34 16.23 24.27 25.89a1 1 0 0 1 .48.86v8.36a1 1 0 0 1-.82 1c-8.18 1.48-13.84 3.7-15.16 5.93-3.27 5.57-12.8 11.64-13.2 11.9a1 1 0 0 1-.49.05zm-1-14.31a2.64 2.64 0 0 1 1.76.64c2.07 1.78 1.43 7.11.78 10.43 3-2.09 8.34-6.17 10.48-9.83 2-3.45 9.48-5.55 15.7-6.74v-7c-8.84-5.45-24.76-17.75-24.76-27.3v-1.37a8.39 8.39 0 0 1-4.48-1.41c-2 11.13-5.46 25.08-10.56 31.87-2 2.66-3.93 6.41-1.8 9.11s7.89 3.35 11.14 2a4.38 4.38 0 0 1 1.73-.4z" transform="translate(-7.18 -5.27)" fill="#454545"/><path d="m118 177.17 4.82-14c2.45-7.13-.56-14.69-6.69-16.81-6.14-2.11-13.16 2-15.62 9.13l-4.82 14z" transform="translate(-7.18 -5.27)" fill="#299ed8"/><path d="M118 178.17a1 1 0 0 1-.33-.05l-22.31-7.68a1 1 0 0 1-.62-1.27l4.82-14a15.81 15.81 0 0 1 6.87-8.57 11.63 11.63 0 0 1 17.19 5.92 15.81 15.81 0 0 1 .14 11l-4.82 14a1 1 0 0 1-.95.67zm-21-9.3 20.42 7 4.49-13a13.81 13.81 0 0 0-.11-9.59 9.64 9.64 0 0 0-14.33-4.93 13.81 13.81 0 0 0-6 7.49z" transform="translate(-7.18 -5.27)" fill="#133456"/><path d="M170.35 146.32v70.56q-4.22 1.26-8.56 2.13a103.87 103.87 0 0 1-43.29-.41v-72.25c.37-.14.75-.27 1.11-.39l.45-.14.52-.15c.42-.11.82-.22 1.23-.31s.61-.15.92-.21.52-.11.78-.15a8 8 0 0 1 .83-.14c.25 0 .49-.08.74-.1h.54c.33 0 .67-.07 1-.09h34a27.79 27.79 0 0 1 5.44.54 26.43 26.43 0 0 1 2.69.68c.57.11 1.09.24 1.6.43z" transform="translate(-7.18 -5.27)" fill="#299ed8"/><path d="M141.1 222.09a104.44 104.44 0 0 1-22.82-2.51 1 1 0 0 1-.78-1v-72.23a1 1 0 0 1 .65-.94c.38-.14.77-.28 1.15-.4l.45-.14.39-.11.41-.11 1.06-.26c.3-.08.61-.15.94-.21s.54-.11.82-.16a8 8 0 0 1 .88-.15c.26 0 .51-.08.77-.1h.45c.35 0 .71-.07 1.07-.1h34.06a29 29 0 0 1 5.63.56 27.33 27.33 0 0 1 2.79.71c.55.17 1.08.34 1.61.54a1 1 0 0 1 .65.94v70.56a1 1 0 0 1-.71 1c-2.83.85-5.75 1.57-8.65 2.15a104.34 104.34 0 0 1-20.82 1.96zm-21.6-4.29a103.37 103.37 0 0 0 42.09.23c2.61-.52 5.21-1.16 7.76-1.9V147l-.85-.27a25.33 25.33 0 0 0-2.58-.65 26.94 26.94 0 0 0-5.25-.52h-33.99c-.31 0-.63 0-.94.08h-.5c-.29 0-.49.06-.7.09h-.1a7 7 0 0 0-.73.12l-.77.15-.89.2-1 .25-.39.11-.28.08-.45.14-.43.14z" transform="translate(-7.18 -5.27)" fill="#133456"/><path d="M126.57 189.44H126v-.66h.58v-1.23h.79v1.23h1v.66h-1v1.89a.85.85 0 0 0 .91 1 1 1 0 0 0 .19 0v.67h-.29a1.47 1.47 0 0 1-1.63-1.59zM129.24 188.72h.76v.74a3 3 0 0 1 0 .32 1.46 1.46 0 0 1 1.35-1.11h.21v.81a1.18 1.18 0 0 0-.24 0 1.29 1.29 0 0 0-1.2 1 2.59 2.59 0 0 0-.1.77V193h-.82zM135.92 188.76h.87l1 2.88c.08.24.13.58.14.58a5 5 0 0 1 .15-.58l1-2.88h.92l-1.55 4.24h-.94zM142.39 188.65a1.81 1.81 0 0 1 1.84 2v.35h-3.11a1.39 1.39 0 0 0 1.46 1.41 2 2 0 0 0 1.26-.5l.34.6a2.54 2.54 0 0 1-1.65.61 2.17 2.17 0 0 1-2.26-2.23 2.09 2.09 0 0 1 2.12-2.24zm1 1.73a1 1 0 0 0-1-1.09 1.22 1.22 0 0 0-1.25 1.09zM145 187.07h.82v4.64c0 .51.2.61.45.61h.14v.68h-.27c-.46 0-1.14-.13-1.14-1.2zM149.11 188.65a2.23 2.23 0 1 1-2.3 2.22 2.22 2.22 0 0 1 2.3-2.22zm0 3.75a1.52 1.52 0 1 0-1.46-1.53 1.47 1.47 0 0 0 1.46 1.54zM152.21 187.07h.79v3.25h.23a1 1 0 0 0 .7-.45l.82-1.11h.93l-1.41 1.88.34.5 1.24 1.86h-1l-1.08-1.68s-.19-.32-.45-.32H153v2h-.82zM158.69 190.35h.19v-.08a.83.83 0 0 0-.93-.93 2.16 2.16 0 0 0-1.19.41l-.34-.6a2.67 2.67 0 0 1 1.59-.5 1.51 1.51 0 0 1 1.68 1.67V193h-.76v-.56a1.49 1.49 0 0 1-1.36.67 1.33 1.33 0 0 1-1.45-1.3c0-1.4 1.88-1.46 2.57-1.46zm-.94 2.1a1.29 1.29 0 0 0 1.14-1.36V191h-.21c-.61 0-1.73 0-1.73.81a.71.71 0 0 0 .8.65zM134.45 190.35h.19v-.08a.83.83 0 0 0-.93-.93 2.16 2.16 0 0 0-1.19.41l-.34-.6a2.67 2.67 0 0 1 1.59-.5 1.51 1.51 0 0 1 1.68 1.67V193h-.76v-.56a1.49 1.49 0 0 1-1.36.67 1.33 1.33 0 0 1-1.45-1.3c0-1.4 1.85-1.46 2.57-1.46zm-.94 2.1a1.29 1.29 0 0 0 1.14-1.36V191h-.21c-.61 0-1.73 0-1.73.81a.71.71 0 0 0 .79.65zM159.2 188a.45.45 0 0 0 .17 0 .91.91 0 0 1 .41-.13 1.53 1.53 0 0 1 .61.21.38.38 0 0 0 .29 0 .87.87 0 0 0 .17-.64c-.09-.49-.46-1.16-.23-1.66a2.67 2.67 0 0 1 1.63-1.19s0 .7-.07 1.28v.68a7.56 7.56 0 0 0 1.06 3 3.93 3.93 0 0 0 1.27.89s-.2-.06-.21 0a.11.11 0 0 0 .06.12 9 9 0 0 0-1.62-.66 21.57 21.57 0 0 1-2.12-.52c-.59-.26-.54-.77-1.25-1a12.07 12.07 0 0 0-1.61-.43z" transform="translate(-7.18 -5.27)" fill="#fff"/><path d="M163 188.65a7.8 7.8 0 0 1 1.06-1.66c.63-.81 1.38-1.59 1.38-1.59a9.88 9.88 0 0 0-1.69.37 9.12 9.12 0 0 0-.94.37 11.51 11.51 0 0 0 .19 2.63.67.67 0 0 1 0-.12z" transform="translate(-7.18 -5.27)" fill="#f1efef"/><path d="M162.8 186.15c-.36.16-.61.3-.61.3a7.55 7.55 0 0 0 1.06 3 1 1 0 0 1-.26-.64 11.51 11.51 0 0 1-.19-2.66z" transform="translate(-7.18 -5.27)" fill="#dededd"/><path d="m112.31 175.38-11.87 30.43a6.88 6.88 0 0 1-5.59 4.35c-2.5-1.24-4.92-2.59-7.3-4l-18.7-26.28-.72-1 .38-.39 6.35-6.56.81-.84.52.61.47.57 15.6 18.42 6.88-19.75z" transform="translate(-7.18 -5.27)" fill="#f7e2cc"/><path d="M94.81 210.76a1 1 0 0 1-.45-.1c-2.37-1.18-4.78-2.5-7.37-4.06a1 1 0 0 1-.18-.14l-.13-.15L68 180.44l-.06-.09-.68-.94a1 1 0 0 1 0-1.18l.12-.14L75 170.3a1 1 0 0 1 1.48 0l1 1.19 14.42 17.12 6.3-18.1a1 1 0 0 1 1.27-.62l13.17 4.53a1 1 0 0 1 .61 1.31l-11.87 30.43a7.49 7.49 0 0 1-6.44 4.59zm-6.58-5.38c2.38 1.42 4.6 2.65 6.78 3.74a5.86 5.86 0 0 0 4.5-3.68L111 176l-11.24-3.87-6.55 18.81a1 1 0 0 1-.76.65 1 1 0 0 1-.95-.34l-15.87-18.76-6.22 6.43.23.33v.07z" transform="translate(-7.18 -5.27)" fill="#133456"/><path d="m180.91 175.62-6.28 36.64A9 9 0 0 1 173 216l-2.69.83q-4.22 1.26-8.56 2.13l-26.31-8-.64-.2-3.12-.95-.51-.16.05-.19.22-.82 1.11-4.07.8-2.92.4-1.48 5 .88 23.1 4.11 2.48-14.79v-.14l.74-4.43.06-.34 2-12.1 3.19.52z" transform="translate(-7.18 -5.27)" fill="#f7e2cc"/><path d="M161.79 220a1 1 0 0 1-.29 0l-26.25-8h-.07l-3.72-1.14h-.08l-.51-.16a1 1 0 0 1-.67-1.21l2.58-9.48a1 1 0 0 1 1.14-.72L161 204l2.31-13.79v-.1l2.83-16.87a1 1 0 0 1 1.15-.82l13.75 2.26a1 1 0 0 1 .82 1.16l-6.28 36.64a9.93 9.93 0 0 1-1.77 4.21 1 1 0 0 1-.51.37l-2.69.83c-2.84.85-5.75 1.57-8.66 2.16zm-26.08-10h.06l26.07 8c2.76-.56 5.53-1.25 8.22-2.06l2.35-.73a8 8 0 0 0 1.23-3.1l6.11-35.65L168 174.5l-2.67 15.89v.18l-2.47 14.75a1 1 0 0 1-1.16.82l-27.18-4.83-2.14 7.69z" transform="translate(-7.18 -5.27)" fill="#133456"/><path d="M131 206.43c-8.15-1.45-12-5.93-13.14-7.59a.92.92 0 0 1 .09-1.16l.72-.78a1 1 0 0 1 1.39-.08 18.36 18.36 0 0 0 10.25 4.18" transform="translate(-7.18 -5.27)" fill="#f7e2cc"/><path d="M131 207.43h-.18c-8.43-1.5-12.45-6.09-13.79-8a1.91 1.91 0 0 1 .17-2.41l.72-.78a2 2 0 0 1 2.79-.15 17.48 17.48 0 0 0 9.68 3.93 1 1 0 0 1-.21 2 19.27 19.27 0 0 1-10.79-4.42l-.71.79c1.19 1.61 4.8 5.71 12.5 7.08a1 1 0 0 1-.17 2z" transform="translate(-7.18 -5.27)" fill="#133456"/><path d="M122.21 206.33c-8.15-1.45-12-5.93-13.14-7.59a.92.92 0 0 1 .09-1.16l.72-.78a1 1 0 0 1 1.39-.08 18 18 0 0 0 10.29 5" transform="translate(-7.18 -5.27)" fill="#f7e2cc"/><path d="M122.21 207.33h-.18c-8.43-1.5-12.45-6.09-13.79-8a1.91 1.91 0 0 1 .17-2.41l.72-.78a2 2 0 0 1 2.79-.15l.19.17a16.87 16.87 0 0 0 9.55 4.58 1 1 0 1 1-.21 2 18.73 18.73 0 0 1-10.66-5.07l-.18-.16-.71.78c1.19 1.61 4.8 5.71 12.5 7.08a1 1 0 0 1-.17 2z" transform="translate(-7.18 -5.27)" fill="#133456"/><path d="m73.81 166.59-5.74-2.53L55 163l-4.31 7.61 10.62 2.75s3.56.76 5.38 3.21c1.44 1.94 5 4.32 5.62 3.5s5.52-6.36 4.11-10.09-2.61-3.39-2.61-3.39z" transform="translate(-7.18 -5.27)" fill="#f7e2cc"/><path d="M170.35 146.32v14a92.02 92.02 0 0 1-1.87 3.34c-11 18.64-19.15 13.58-23.58 3-4.43 10.6-12.58 15.65-23.57-3q-1.61-2.74-2.82-5.18v-12.14c.52-.19 1-.37 1.56-.53l.52-.15c.41-.11.82-.22 1.23-.31a26.36 26.36 0 0 1 4.82-.74h5.27a24.89 24.89 0 0 0 13 6.25 24.88 24.88 0 0 0 13-6.25h2.73a27.28 27.28 0 0 1 5.44.55 25.39 25.39 0 0 1 2.68.68c.57.16 1.08.29 1.59.48z" transform="translate(-7.18 -5.27)" fill="#a5d8f4"/><path d="M154.65 177.12h-.51c-3.55-.24-6.72-3-9.24-8.06-2.52 5-5.68 7.82-9.24 8.06-4.85.33-9.93-4-15.2-12.94-1.09-1.85-2-3.61-2.86-5.24a1 1 0 0 1-.1-.45v-12.15a1 1 0 0 1 .66-.94 33.8 33.8 0 0 1 1.61-.54l.55-.16c.43-.12.85-.22 1.28-.32a27.4 27.4 0 0 1 5-.77h5.33a1 1 0 0 1 .67.26 23.87 23.87 0 0 0 12.32 6 23.87 23.87 0 0 0 12.33-6 1 1 0 0 1 .67-.26h2.73a28.43 28.43 0 0 1 5.64.57 27.13 27.13 0 0 1 2.76.7h.05c.55.17 1.08.34 1.61.54a1 1 0 0 1 .65.94v14a1 1 0 0 1-.12.47 74.16 74.16 0 0 1-1.9 3.38c-5.08 8.56-10.02 12.91-14.69 12.91zm-9.75-11.49a1 1 0 0 1 .92.61c2.3 5.5 5.3 8.64 8.45 8.86 4 .26 8.56-3.87 13.34-12 .62-1 1.2-2.08 1.74-3.08V147l-.83-.26h-.06a24.73 24.73 0 0 0-2.58-.65 26.37 26.37 0 0 0-5.25-.53h-2.35a25.86 25.86 0 0 1-13.24 6.24 1 1 0 0 1-.31 0 25.85 25.85 0 0 1-13.23-6.24H126.69a25.39 25.39 0 0 0-4.64.71c-.42.1-.82.2-1.22.31l-.48.14-.86.28v11.19c.77 1.53 1.67 3.18 2.69 4.91 4.77 8.1 9.37 12.21 13.33 12 3.15-.22 6.15-3.36 8.45-8.86a1 1 0 0 1 .94-.6z" transform="translate(-7.18 -5.27)" fill="#133456"/><circle cx="137.43" cy="168.07" r="1.16" fill="#a5d8f4"/><circle cx="137.43" cy="171.83" r="1.16" fill="#a5d8f4"/><circle cx="137.43" cy="175.6" r="1.16" fill="#a5d8f4"/><path d="m162.67 172.43 2.19-14.64c1.12-7.46 7.28-12.78 13.7-11.82 6.42 1 10.76 7.85 9.64 15.31l-2.2 14.64z" transform="translate(-7.18 -5.27)" fill="#299ed8"/><path d="M186 176.92h-.15l-23.34-3.49a1 1 0 0 1-.84-1.14l2.19-14.64c1.2-8 7.85-13.7 14.83-12.66s11.68 8.42 10.48 16.44L187 176.07a1 1 0 0 1-1 .85zm-22.2-5.33 21.36 3.19 2-13.65c1-6.93-2.91-13.29-8.8-14.17s-11.52 4-12.56 11z" transform="translate(-7.18 -5.27)" fill="#133456"/><path d="M156.28 136.68v16.24a11.81 11.81 0 0 1-11.94 11.81 11.81 11.81 0 0 1-11.69-11.81v-20.43l.91-2.28c6.74-7.26 14.77-6.35 19.24-1.88a11.72 11.72 0 0 1 3.48 8.35z" transform="translate(-7.18 -5.27)" fill="#f7e2cc"/><path d="M144.47 165.73h-.14a12.86 12.86 0 0 1-12.68-12.81v-20.43a1 1 0 0 1 .07-.37l.91-2.28a1 1 0 0 1 .2-.31c4.26-4.58 8.54-5.61 11.39-5.66a12.85 12.85 0 0 1 13.06 12.81v16.24a12.82 12.82 0 0 1-12.81 12.82zm-10.82-33v20.23a10.81 10.81 0 0 0 18.42 7.69 10.74 10.74 0 0 0 3.21-7.69v-16.28a10.85 10.85 0 0 0-11-10.81c-3.47.06-6.87 1.75-9.84 4.89z" transform="translate(-7.18 -5.27)" fill="#133456"/><path d="M156.28 136.68v5.64c-5.1 3.09-9.59 5.07-11.82 5.07s-6.72-2-11.81-5.06v-5.66a11.8 11.8 0 0 1 20.15-8.34 11.72 11.72 0 0 1 3.48 8.35z" transform="translate(-7.18 -5.27)" fill="#8e8d8d" opacity=".2"/><path d="M145 165.85h-1.16a12.25 12.25 0 0 1-12.23-12.23V136.1a12.25 12.25 0 0 1 12.23-12.23H145a12.25 12.25 0 0 1 12.23 12.23v17.51A12.25 12.25 0 0 1 145 165.85zm-1.16-40a10.25 10.25 0 0 0-10.23 10.23v17.51a10.25 10.25 0 0 0 10.23 10.23H145a10.25 10.25 0 0 0 10.23-10.23V136.1A10.25 10.25 0 0 0 145 125.87zM180.48 121.09a64.34 64.34 0 0 0 6 20.18c.35.72 1.43.09 1.08-.63a62.33 62.33 0 0 1-5.85-19.55c-.1-.79-1.35-.8-1.25 0zM171.14 131.61a28.93 28.93 0 0 0 2.41 10.85c.34.73 1.41.1 1.08-.63a27.32 27.32 0 0 1-2.24-10.22c-.05-.8-1.3-.8-1.25 0z" transform="translate(-7.18 -5.27)" fill="#133456"/><path d="M145.64 141.8c-7 .51-37.9-17-38.78-29.09l-2.76-38.16c-1.36-18.81 13.94-35.4 34-36.85 20.06-1.45 37.59 12.75 39 31.56l2.77 38.21c.82 12.03-27.21 33.82-34.23 34.33z" transform="translate(-7.18 -5.27)" fill="#f7e2cc"/><path d="M145.35 142.81c-4 0-13.31-4.21-22-10-5.08-3.4-17-12.15-17.52-20l-2.73-38.19a34 34 0 0 1 9.23-25.69 39.15 39.15 0 0 1 52.89-3.83A34 34 0 0 1 178 69.19l2.77 38.21c.57 7.85-9.92 18.21-14.46 22.3-8 7.19-16.85 12.82-20.65 13.1zm-4.41-104.22q-1.38 0-2.77.1a36.56 36.56 0 0 0-24.37 11.6 32 32 0 0 0-8.7 24.18l2.77 38.16c.35 4.85 6.57 11.77 16.64 18.51 9.32 6.23 18.21 9.83 21.07 9.66s11.13-5.08 19.45-12.59c9-8.11 14.15-15.84 13.8-20.67l-2.77-38.21A32 32 0 0 0 164 46.65a36.41 36.41 0 0 0-23.06-8.06z" transform="translate(-7.18 -5.27)" fill="#133456"/><path d="M178.9 82.23a7.45 7.45 0 0 0-.9.13l1.64 22.6a7.45 7.45 0 0 0 7.85-8l-.57-7.82a7.52 7.52 0 0 0-8.02-6.91z" transform="translate(-7.18 -5.27)" fill="#f7e2cc"/><path d="M180.08 106h-.49a1 1 0 0 1-.95-.94L177 82.42a1 1 0 0 1 .8-1.05 8.51 8.51 0 0 1 10.11 7.72l.57 7.82a8.51 8.51 0 0 1-7.86 9.09zm-1-22.79 1.49 20.79a6.51 6.51 0 0 0 5.92-7l-.57-7.82a6.52 6.52 0 0 0-6.86-6zm-.16-1z" transform="translate(-7.18 -5.27)" fill="#133456"/><path d="M104.25 87.64a7.45 7.45 0 0 1 .91 0l1.64 22.6a7.45 7.45 0 0 1-8.92-6.81l-.57-7.82a7.52 7.52 0 0 1 6.94-7.97z" transform="translate(-7.18 -5.27)" fill="#f7e2cc"/><path d="M105.35 111.43a8.51 8.51 0 0 1-8.47-7.88l-.57-7.82a8.51 8.51 0 0 1 7.86-9.09 8.58 8.58 0 0 1 1 0 1 1 0 0 1 .95.93l1.64 22.6a1 1 0 0 1-.8 1.1 8.43 8.43 0 0 1-1 .14zm-1.12-22.79a6.5 6.5 0 0 0-5.92 6.94l.57 7.82a6.51 6.51 0 0 0 6.86 6z" transform="translate(-7.18 -5.27)" fill="#133456"/><path d="M105.23 105.14c-2.6 0-4-2.92-4.32-4.55a.5.5 0 0 1 1-.22s1 4.09 3.68 3.75a.5.5 0 1 1 .13 1zM179.88 99.74a.5.5 0 0 1 0-1c2.75-.05 3.1-4.2 3.1-4.24a.5.5 0 0 1 1 .07c-.13 1.76-1.15 5.11-4.08 5.16zM141.06 104.6a.49.49 0 0 1-.17 0c-.46-.16-4.53-1.65-4.77-3.63a2.09 2.09 0 0 1 1.19-2c3.15-2.05 2.4-6.28 2.39-6.33a.5.5 0 0 1 1-.19c0 .2.89 4.93-2.83 7.35-.53.35-.78.69-.74 1 .12 1 2.47 2.23 4.11 2.81a.5.5 0 0 1-.17 1z" transform="translate(-7.18 -5.27)" fill="#133456"/><path d="M120.09 106.12a.5.5 0 0 1-.43-.76l1.71-2.86a.5.5 0 0 1 .86.51l-1.71 2.86a.5.5 0 0 1-.43.25zM124.15 105.82a.5.5 0 0 1-.43-.76l1.71-2.86a.5.5 0 0 1 .86.51l-1.71 2.86a.5.5 0 0 1-.43.25zM128.21 105.53a.5.5 0 0 1-.43-.76l1.71-2.86a.5.5 0 1 1 .86.51l-1.71 2.86a.5.5 0 0 1-.43.25zM155.69 103.54a.5.5 0 0 1-.43-.76l1.74-2.86a.5.5 0 0 1 .86.51l-1.71 2.86a.5.5 0 0 1-.46.25zM159.75 103.24a.5.5 0 0 1-.43-.76l1.68-2.85a.5.5 0 0 1 .86.51l-1.68 2.86a.5.5 0 0 1-.43.24zM163.81 102.95a.5.5 0 0 1-.43-.76l1.71-2.86a.5.5 0 0 1 .86.51l-1.71 2.86a.5.5 0 0 1-.43.25z" transform="translate(-7.18 -5.27)" fill="#f58f8f"/><path d="M152.16 82.65a1.07 1.07 0 0 0 .65 0c6.74-2.65 8.75-.31 9.75.32.57.36 1.65 2.73 2.2 2.33a1.23 1.23 0 0 0 .3-1.72c-.17-.24-4.26-5.9-13-3.31a1.24 1.24 0 0 0 .06 2.39zM132.07 83.73a1.07 1.07 0 0 1-.65 0c-6.85-2.35-8.75.07-9.73.75-.56.39-1.53 2.8-2.1 2.43a1.23 1.23 0 0 1-.37-1.7c.16-.25 4-6.08 12.8-3.88a1.24 1.24 0 0 1 0 2.39zM141.06 104.6a.49.49 0 0 1-.17 0c-.46-.16-4.53-1.65-4.77-3.63a2.09 2.09 0 0 1 1.19-2c3.15-2.05 2.4-6.28 2.39-6.33a.5.5 0 0 1 1-.19c0 .2.89 4.93-2.83 7.35-.53.35-.78.69-.74 1 .12 1 2.47 2.23 4.11 2.81a.5.5 0 0 1-.17 1zM122.27 97.3a.5.5 0 0 1-.47-.53 4.82 4.82 0 0 1 4.35-4.64c3.2-.25 4.66 2.49 5 4a.5.5 0 0 1-1 .21c0-.14-.78-3.38-3.92-3.18s-3.41 3.57-3.42 3.71a.5.5 0 0 1-.54.43zM154.34 95a.5.5 0 0 1-.46-.53 4.69 4.69 0 0 1 9.32-.68.5.5 0 0 1-1 .21c0-.14-.81-3.4-3.92-3.18s-3.41 3.57-3.42 3.71a.5.5 0 0 1-.52.47z" transform="translate(-7.18 -5.27)" fill="#133456"/><path d="M102.27 77.35C101.86 83.84 93.11 93 93.11 93c23.57.94 54.56-33.73 54.56-33.73s21.25 25.69 32.81 25.63l-.2-2.76s2.5 0 5 4.18c0 0 4.12-61.57-46.74-57.88 0 0-50.43-3.46-41.2 59" transform="translate(-7.18 -5.27)" fill="#454545"/><path d="M94.06 94h-1a1 1 0 0 1-.68-1.69 56.72 56.72 0 0 0 3.91-4.7c-3.12-21.16.18-37.18 9.82-47.6 12.46-13.48 30.89-12.67 32.38-12.58 13.63-1 24.63 2.6 32.7 10.63 8.88 8.83 12.49 21.51 14 30.59a85.94 85.94 0 0 1 1.08 17.73 1 1 0 0 1-1.86.44 8.54 8.54 0 0 0-3-3.28l.09 1.29a1 1 0 0 1-1 1.07c-10.79 0-28.87-20.5-32.8-25.12C142.66 66.16 115.86 94 94.06 94zm8.21-17.66h.06a1 1 0 0 1 .94 1.06c-.33 5.12-5.27 11.55-7.9 14.6 22.55-1.21 51.26-33 51.56-33.38a1 1 0 0 1 .75-.33 1 1 0 0 1 .75.36c.2.25 19.77 23.75 31 25.2l-.12-1.62a1 1 0 0 1 1-1.07c.22 0 2 0 4 2.22 0-8-1.21-30.64-14.53-43.88-7.65-7.61-18.15-11-31.21-10h-.14c-.19 0-18.8-1.11-30.85 11.94C98.7 51 95.47 65.72 98 85.19c1.68-2.59 3.13-5.47 3.29-7.9a1 1 0 0 1 .98-.94z" transform="translate(-7.18 -5.27)" fill="#454545"/><path d="M154.17 54.74a60.94 60.94 0 0 0 18.5 15.64c.71.39 1.34-.69.63-1.08a60.11 60.11 0 0 1-18.25-15.45c-.5-.63-1.38.26-.88.88zM147.82 56.39l-3.23 4.18c-.49.63.39 1.52.88.88l3.23-4.18c.49-.63-.39-1.52-.88-.88zM138.76 46.49c-1.52 5.41-5.51 9.65-9.13 13.79-3.37 3.85-6.93 7.52-10.63 11.06-.58.56.3 1.44.88.88a171.42 171.42 0 0 0 13-13.8c3-3.55 5.83-7.07 7.1-11.6a.63.63 0 0 0-1.21-.33z" transform="translate(-7.18 -5.27)" fill="#133456"/><path d="M125.27 145.23a63.46 63.46 0 0 0-5.57 8.16c-2.78 5.64-12 12.46-12 12.46s2.74-14.86-3.2-11.79-19.32.52-11.42-11.79c3.08-4.79 5.16-12.92 6.54-21.07 4.71 3.84 22.49 15.84 25.13 20.05 1.25 1.95 2.11 1.04.52 3.98z" transform="translate(-7.18 -5.27)" fill="#454545"/><path d="M107.69 166.86a1 1 0 0 1-1-1.18c.69-3.77 1.05-9.85-.37-10.91-.28-.21-.75-.15-1.39.18-3.92 2-10.58 1.79-13.65-1.57-1.75-1.92-3-5.5.93-11.65 2.6-4.05 4.76-11 6.4-20.69a1 1 0 0 1 1.62-.61c1.37 1.12 3.91 3 6.84 5.1 7.37 5.37 16.55 12.06 18.51 15.2a4.89 4.89 0 0 0 .77.94c1.17 1.17.89 2-.22 4a1 1 0 0 1-.12.18 63.45 63.45 0 0 0-5.43 8c-2.86 5.79-11.93 12.54-12.31 12.82a1 1 0 0 1-.58.19zm-1.75-14.21a2.61 2.61 0 0 1 1.58.51c2.19 1.63 1.94 7 1.53 10.35 2.82-2.3 7.87-6.76 9.75-10.56a64.22 64.22 0 0 1 5.64-8.29 8.94 8.94 0 0 0 .67-1.42l-.16-.16a6.87 6.87 0 0 1-1.06-1.3c-1.76-2.81-11.53-9.93-18-14.64-2.18-1.59-4.15-3-5.59-4.13-1.65 9.1-3.8 15.75-6.4 19.79-1.8 2.8-3.45 6.67-1.13 9.22s8.11 2.77 11.25 1.14a4.17 4.17 0 0 1 1.92-.51zm19.33-7.42z" transform="translate(-7.18 -5.27)" fill="#454545"/><path d="M119 154.36a64.77 64.77 0 0 0 1.35-15.78c0-.8-1.28-.81-1.25 0a63.39 63.39 0 0 1-1.3 15.42c-.16.78 1 1.12 1.21.33zM110.7 124.52a39.56 39.56 0 0 1-2.36 11.15c-.28.76.93 1.08 1.21.33a40.7 40.7 0 0 0 2.4-11.48c.05-.8-1.2-.8-1.25 0zM96.38 87.93a.5.5 0 0 1-.33-.88l3.21-2.75a25.54 25.54 0 0 0 4.57-4.64.5.5 0 0 1 .82.57 26.31 26.31 0 0 1-4.74 4.83l-3.21 2.75a.5.5 0 0 1-.32.12zM106.71 78.39a.5.5 0 0 1-.36-.84l1.2-1.27a.5.5 0 0 1 .73.69l-1.2 1.27a.5.5 0 0 1-.37.15zM106.5 45.22a.5.5 0 0 1-.42-.77 27.79 27.79 0 0 1 8.69-8.4.5.5 0 1 1 .52.85 26.78 26.78 0 0 0-8.37 8.1.5.5 0 0 1-.42.22zM97.52 151.79a.51.51 0 0 1-.18 0c-1.91-.73-3.74-1.65-4.18-3.51a5.54 5.54 0 0 1 1-3.95c.43-.76.89-1.52 1.35-2.28 1.7-2.83 3.46-5.75 3.91-9a.5.5 0 0 1 1 .14c-.48 3.43-2.29 6.44-4 9.35-.45.75-.91 1.5-1.33 2.26a4.72 4.72 0 0 0-.88 3.22c.34 1.41 1.91 2.18 3.57 2.81a.5.5 0 0 1-.18 1zM110.32 157.52a.5.5 0 0 1-.29-.91 3 3 0 0 0 .89-1.42 27.25 27.25 0 0 0 1.86-9.14.54.54 0 0 1 .51-.49.5.5 0 0 1 .49.51 28.26 28.26 0 0 1-1.93 9.47 3.91 3.91 0 0 1-1.25 1.87.5.5 0 0 1-.28.11zM186.88 125.07a.5.5 0 0 1-.49-.42 45.76 45.76 0 0 1-.53-8.32.51.51 0 0 1 .51-.49.5.5 0 0 1 .49.51 44.72 44.72 0 0 0 .52 8.13.5.5 0 0 1-.42.57z" transform="translate(-7.18 -5.27)" fill="#133456"/><path d="M143.67 119.29c-1.12-1-3.38-2.2-6.32 1.24l6.09 1.14 6.64-1.76c-3.26-3.14-5.4-1.76-6.41-.62z" transform="translate(-7.18 -5.27)" fill="#f58f8f"/><path d="M138.13 120.95s5.91 6.68 11.21-.54z" transform="translate(-7.18 -5.27)" fill="#f58f8f"/><path d="M143.24 121.91c-9.51 0-12-3.66-12.1-3.81a.5.5 0 0 1 .84-.55c0 .06 2.41 3.36 11.26 3.36s12.18-4.24 12.21-4.28a.5.5 0 0 1 .81.59c-.14.19-3.53 4.69-13.02 4.69z" transform="translate(-7.18 -5.27)" fill="#133456"/><path d="M95.18 71.86a42.31 42.31 0 0 1 10.92-31.52 45.39 45.39 0 0 1 30.71-15c1.13-.08 2.27-.12 3.39-.12 23.33 0 42.88 17.62 44.5 40.11l1.53 21.1-7.15.52-1.53-21.1c-1.36-18.76-17.77-33.45-37.36-33.45-1 0-1.92 0-2.87.1-20.74 1.5-36.44 18.91-35 38.8l1.53 21.1-7.14.6z" transform="translate(-7.18 -5.27)" fill="#92ceeb"/><path d="M140.2 26.26c22.71 0 41.9 17 43.51 39.18l1.46 20.1-5.16.37-1.46-20.1c-1.41-19.49-18.33-34.38-38.35-34.38q-1.46 0-2.94.11C116 33.09 99.86 51 101.34 71.41l1.46 20.1-5.16.37-1.46-20.1c-1.69-23.29 16.57-43.65 40.7-45.4 1.11-.08 2.22-.12 3.32-.12m0-2c-1.15 0-2.31 0-3.46.13a46.39 46.39 0 0 0-31.38 15.28 43.31 43.31 0 0 0-11.18 32.26L95.64 92l.14 2 2-.14 5.16-.37 2-.14-.14-2-1.46-20.1a34.21 34.21 0 0 1 8.91-25.54 37.28 37.28 0 0 1 25.15-12.17c.93-.07 1.87-.1 2.79-.1 19.07 0 35 14.29 36.36 32.52l1.45 20.1.14 2 2-.14 5.16-.37 2-.14-.14-2-1.46-20.11c-1.67-23-21.65-41-45.5-41z" transform="translate(-7.18 -5.27)" fill="#133456"/><path d="m178.91 82.07 7.78-.56h.4a5.44 5.44 0 0 1 5.4 5l.86 11.83a5.43 5.43 0 0 1-5 5.8l-7.78.56z" transform="translate(-7.18 -5.27)" fill="#92ceeb"/><path d="M187.08 82.5a4.42 4.42 0 0 1 4.41 4.1l.86 11.83a4.42 4.42 0 0 1-4.09 4.73l-6.78.49L180 83l6.78-.49h.32m0-2h-.47l-6.78.49-2 .14.14 2 1.5 20.65.14 2 2-.14 6.78-.49a6.42 6.42 0 0 0 5.94-6.87l-.86-11.83a6.44 6.44 0 0 0-6.4-6z" transform="translate(-7.18 -5.27)" fill="#133456"/><path d="M96.89 110.77a5.44 5.44 0 0 1-5.4-5l-.86-11.83a5.42 5.42 0 0 1 5-5.8l7.78-.56 1.64 22.65-7.78.56z" transform="translate(-7.18 -5.27)" fill="#92ceeb"/><path d="m102.49 88.62 1.5 20.65-6.78.49h-.32a4.42 4.42 0 0 1-4.41-4.1l-.86-11.83a4.42 4.42 0 0 1 4.09-4.73l6.78-.49m1.85-2.14-2 .14-6.78.49a6.42 6.42 0 0 0-5.93 6.9l.86 11.83a6.44 6.44 0 0 0 6.4 6h.47l6.78-.49 2-.14-.14-2-1.5-20.65-.14-2zM147.29 126.73a1 1 0 0 1-.07-2l17.21-1.25a21.65 21.65 0 0 0 20-23.16 1 1 0 0 1 .92-1.07 1 1 0 0 1 1.07.93 23.65 23.65 0 0 1-21.88 25.3l-17.21 1.25z" transform="translate(-7.18 -5.27)" fill="#133456"/><rect x="144.15" y="122.99" width="8.75" height="5.67" rx="2.19" ry="2.19" transform="rotate(-4.15 71.958 222.18)" fill="#92ceeb"/><path d="M146.39 129.82a3.19 3.19 0 0 1-3.18-3l-.09-1.28a3.19 3.19 0 0 1 3-3.41l4.36-.32a3.19 3.19 0 0 1 3.41 3l.09 1.28a3.19 3.19 0 0 1-3 3.41l-4.36.32zm4.52-1.32zm-.25-4.66h-.09l-4.36.32a1.19 1.19 0 0 0-1.1 1.27l.09 1.28a1.19 1.19 0 0 0 1.27 1.1l4.36-.32a1.19 1.19 0 0 0 1.1-1.27l-.09-1.28a1.19 1.19 0 0 0-1.19-1.11z" transform="translate(-7.18 -5.27)" fill="#133456"/><path d="M161.82 205.16a18.71 18.71 0 0 1 5.52 1.8" transform="translate(-7.18 -5.27)" fill="#f7e2cc"/><path d="M167.35 208a1 1 0 0 1-.54-.16 17.21 17.21 0 0 0-5.15-1.65 1 1 0 0 1-.82-1.15 1 1 0 0 1 1.15-.82 19.4 19.4 0 0 1 5.9 1.95 1 1 0 0 1-.54 1.84z" transform="translate(-7.18 -5.27)" fill="#133456"/><path d="M92.27 190.6a13.72 13.72 0 0 1 3.2 7.08" transform="translate(-7.18 -5.27)" fill="#f7e2cc"/><path d="M95.47 198.68a1 1 0 0 1-1-.82 13 13 0 0 0-2.92-6.54 1 1 0 0 1 1.4-1.43c.1.1 2.56 2.53 3.49 7.62a1 1 0 0 1-.8 1.16z" transform="translate(-7.18 -5.27)" fill="#133456"/><path d="M52 169.82c-7.4-2.55-12.08-7.82-13.3-9.82a1.24 1.24 0 0 1 .37-1.65l1-.72a1.21 1.21 0 0 1 1.55.18c2.45 2.39 7.48 5.89 15.77 5.57" transform="translate(-7.18 -5.27)" fill="#f7e2cc"/><path d="M52 170.82a1 1 0 0 1-.33-.05c-8-2.75-12.7-8.35-13.84-10.28a2.25 2.25 0 0 1 .66-3l1-.72a2.2 2.2 0 0 1 2.81.29c2.16 2.11 7 5.6 15 5.28a1 1 0 1 1 .08 2c-8.81.34-14.12-3.51-16.51-5.85-.06-.06-.19-.14-.28-.07l-1 .72a.24.24 0 0 0-.08.32 26.08 26.08 0 0 0 12.78 9.41 1 1 0 0 1-.33 1.95z" transform="translate(-7.18 -5.27)" fill="#133456"/><path d="M52 170.8c-7.74-.68-12.21-4.3-13.92-6a1.29 1.29 0 0 1 0-1.77l.88-1a1.29 1.29 0 0 1 1.65-.25c1.9 1.15 7.18 5.44 14.71 4.85" transform="translate(-7.18 -5.27)" fill="#f7e2cc"/><path d="M52 171.8h-.09a23.3 23.3 0 0 1-14.54-6.3 2.3 2.3 0 0 1-.08-3.13l.87-1a2.3 2.3 0 0 1 2.93-.46l.88.57c2.26 1.5 7 4.64 13.24 4.14a1 1 0 1 1 .16 2c-7 .54-12.05-2.84-14.5-4.47l-.81-.53a.29.29 0 0 0-.38.06l-.87 1a.3.3 0 0 0 0 .41 21.27 21.27 0 0 0 13.3 5.72 1 1 0 0 1-.09 2z" transform="translate(-7.18 -5.27)" fill="#133456"/><path d="M68.84 179.85s-3.73-6.44-8.49-6.31-11.58-1.23-13.14-2.74c-.8-.78.29-2.64 1.07-2.29 1.28.57 3.52 1.48 8 1.11" transform="translate(-7.18 -5.27)" fill="#f7e2cc"/><path d="M68.84 180.85a1 1 0 0 1-.87-.5c0-.06-3.43-5.81-7.48-5.81h-.12c-4.73.13-12-1.18-13.86-3a2.38 2.38 0 0 1-.07-3 1.82 1.82 0 0 1 2.24-.87c1 .45 3.12 1.39 7.47 1a1 1 0 1 1 .17 2 15.83 15.83 0 0 1-8.19-1.08.93.93 0 0 0-.2.58c1.17 1.12 7.53 2.57 12.39 2.41 5.3-.1 9.22 6.53 9.39 6.81a1 1 0 0 1-.86 1.5z" transform="translate(-7.18 -5.27)" fill="#133456"/><path d="M67.55 163.87c3 0 4.8-.36 6.6 1.06 2.34 1.83 2.9 4.25 1.69 8" transform="translate(-7.18 -5.27)" fill="#f7e2cc"/><path d="M75.84 173.89a1 1 0 0 1-.31 0 1 1 0 0 1-.64-1.26c1.07-3.28.68-5.26-1.35-6.86-1.18-.93-2.32-.91-4.38-.87h-1.61a1 1 0 0 1 0-2h1.57c2.18 0 3.91-.08 5.65 1.29 2.7 2.13 3.35 5 2 9.06a1 1 0 0 1-.93.64z" transform="translate(-7.18 -5.27)" fill="#133456"/><path d="M117.52 207c-8.15-1.45-12-5.93-13.14-7.59a.92.92 0 0 1 .09-1.16l.72-.78a1 1 0 0 1 1.39-.08 18.36 18.36 0 0 0 10.23 4.17" transform="translate(-7.18 -5.27)" fill="#f7e2cc"/><path d="M117.52 208h-.18c-8.43-1.5-12.45-6.09-13.79-8a1.91 1.91 0 0 1 .17-2.41l.72-.78a2 2 0 0 1 2.79-.16 17.46 17.46 0 0 0 9.68 3.93 1 1 0 1 1-.21 2 19.25 19.25 0 0 1-10.79-4.42l-.71.79c1.19 1.61 4.8 5.71 12.5 7.08a1 1 0 0 1-.17 2z" transform="translate(-7.18 -5.27)" fill="#133456"/><path d="M135.94 211.16c-6-2.8-9.74-1-18-2s-12.05-4.68-13.3-6.28a.92.92 0 0 1 0-1.16l.67-.81a1 1 0 0 1 1.38-.15 18.43 18.43 0 0 0 10.44 3.67" transform="translate(-7.18 -5.27)" fill="#f7e2cc"/><path d="M135.94 212.16a1 1 0 0 1-.42-.09c-3.51-1.63-6.23-1.61-9.67-1.59a56.34 56.34 0 0 1-8-.38c-9-1.15-13-5.39-14-6.66a1.91 1.91 0 0 1 0-2.41l.67-.81a2 2 0 0 1 2.77-.29 17.54 17.54 0 0 0 9.88 3.45 1 1 0 1 1-.12 2 19.33 19.33 0 0 1-11-3.88l-.67.82c.87 1 4.37 4.76 12.63 5.81a54.42 54.42 0 0 0 7.75.36c3.55 0 6.61 0 10.53 1.77a1 1 0 0 1-.42 1.91z" transform="translate(-7.18 -5.27)" fill="#133456"/><path d="M135.22 201.31 120.31 204l.48 4.27 10.28.35a4.21 4.21 0 0 1 .88.12l4.17 1z" transform="translate(-7.18 -5.27)" fill="#f7e2cc"/><path d="M125.89 206.21s-6.37.54-9.16-.54-2-4.52.78-4.2a50.23 50.23 0 0 0 5 .54c1.4 0 7.56-2.23 11-2.86 2.11-.39 4.94-.26 5.84 3.72" transform="translate(-7.18 -5.27)" fill="#f7e2cc"/><path d="M122.39 207.35a19 19 0 0 1-6-.74 3.33 3.33 0 0 1-2.3-3.87 3.11 3.11 0 0 1 3.55-2.25l1.56.2a27.24 27.24 0 0 0 3.38.33 37.48 37.48 0 0 0 4.59-1.19c2.11-.62 4.49-1.33 6.23-1.65 4.75-.87 6.43 2 7 4.49a1 1 0 1 1-2 .44c-.58-2.57-2-3.45-4.68-3-1.63.3-4 1-6 1.6-2.75.82-4.35 1.31-5.17 1.27a29.14 29.14 0 0 1-3.63-.35l-1.52-.2c-.86-.1-1.28.32-1.38.74s.1 1.15 1.07 1.53c2.11.81 7 .62 8.71.47a1 1 0 1 1 .17 2c-.13.05-1.68.18-3.58.18z" transform="translate(-7.18 -5.27)" fill="#133456"/><path d="M216.3 188.58q-1.84 2-3.8 3.83a101.92 101.92 0 0 1-9.31 7.92q-2.06 1.56-4.18 3h-.5v-14.75z" transform="translate(-7.18 -5.27)" fill="#d8f0f7"/><path d="M199 204.32h-.5a1 1 0 0 1-1-1v-14.74a1 1 0 0 1 1-1h17.8a1 1 0 0 1 .73 1.68c-1.24 1.32-2.54 2.63-3.84 3.87a103.59 103.59 0 0 1-9.4 8c-1.46 1.11-2.84 2.1-4.22 3a1 1 0 0 1-.57.19zm.5-14.74v12.19c1-.69 2-1.43 3.08-2.24a101.33 101.33 0 0 0 9.22-7.84q1.08-1 2.14-2.11z" transform="translate(-7.18 -5.27)" fill="#133456"/><path d="M203.19 188.58h13.11q-1.84 2-3.8 3.83a101.92 101.92 0 0 1-9.31 7.92z" transform="translate(-7.18 -5.27)" fill="#92ceeb"/><path d="M202.19 202.33v-14.75h16.42l-1.61 1.68c-1.24 1.32-2.54 2.63-3.84 3.87a103.59 103.59 0 0 1-9.4 8zm2-12.75v8.72c2.63-2.06 5.19-4.28 7.62-6.61q1.08-1 2.14-2.11z" transform="translate(-7.18 -5.27)" fill="#133456"/><path d="M224.24 179.06a101.46 101.46 0 0 1-11.74 13.35h-27.21a5.43 5.43 0 0 1-5.43-5.43v-51.19a5.43 5.43 0 0 1 5.43-5.42h58.29a100 100 0 0 1-2.92 14.87c-.31 1.16-.65 2.31-1 3.45a102.37 102.37 0 0 1-14.31 28.85c-.35.46-.74 1.02-1.11 1.52z" transform="translate(-7.18 -5.27)" fill="#d8f0f7"/><path d="M212.5 193.41h-27.21a6.44 6.44 0 0 1-6.43-6.43v-51.19a6.43 6.43 0 0 1 6.43-6.42h58.29a1 1 0 0 1 1 1.12 101.25 101.25 0 0 1-2.95 15c-.3 1.11-.63 2.26-1 3.49a103.24 103.24 0 0 1-14.45 29.13c-.36.51-.74 1-1.11 1.53a102.82 102.82 0 0 1-11.85 13.48 1 1 0 0 1-.72.29zm-27.21-62a4.43 4.43 0 0 0-4.43 4.42V187a4.44 4.44 0 0 0 4.43 4.43h26.81a100.87 100.87 0 0 0 11.33-12.94c.37-.49.73-1 1.09-1.5a101.26 101.26 0 0 0 14.17-28.57c.38-1.2.71-2.32 1-3.41a99.67 99.67 0 0 0 2.75-13.61z" transform="translate(-7.18 -5.27)" fill="#133456"/><path d="M225.34 177.54a102.37 102.37 0 0 0 14.31-28.85c.36-1.14.7-2.29 1-3.45a100 100 0 0 0 2.92-14.87h-52.46a5.42 5.42 0 0 0-5.42 5.42V187a5.43 5.43 0 0 0 5.42 5.43h21.39a101.46 101.46 0 0 0 11.74-13.35c.37-.52.76-1.08 1.1-1.54z" transform="translate(-7.18 -5.27)" fill="#92ceeb"/><path d="M212.9 193.41h-21.79a6.43 6.43 0 0 1-6.42-6.43v-51.19a6.43 6.43 0 0 1 6.42-6.42h53.59l-.13 1.12a101.25 101.25 0 0 1-2.95 15c-.3 1.11-.63 2.26-1 3.49a103.24 103.24 0 0 1-14.45 29.13c-.36.52-.74 1-1.11 1.54a102.77 102.77 0 0 1-11.85 13.48zm-21.79-62a4.42 4.42 0 0 0-4.42 4.42V187a4.43 4.43 0 0 0 4.42 4.43h21a100.87 100.87 0 0 0 11.33-12.94c.37-.5.73-1 1.09-1.5a101.25 101.25 0 0 0 14.17-28.57c.38-1.2.71-2.32 1-3.41a99.67 99.67 0 0 0 2.75-13.61z" transform="translate(-7.18 -5.27)" fill="#133456"/><path d="M240.66 145.24c-.31 1.16-.65 2.31-1 3.45a102.37 102.37 0 0 1-14.31 28.85h-6.22a5.44 5.44 0 0 1-5.43-5.43v-21.45a5.43 5.43 0 0 1 5.43-5.42z" transform="translate(-7.18 -5.27)" fill="#d8f0f7"/><path d="M220.63 148.69h19a102.37 102.37 0 0 1-14.31 28.85c-.36.51-.73 1-1.1 1.52h-3.61a5.44 5.44 0 0 1-5.43-5.43v-19.52a5.43 5.43 0 0 1 5.45-5.42z" transform="translate(-7.18 -5.27)" fill="#92ceeb"/><path fill="none" stroke="#d8f0f7" stroke-linecap="round" stroke-linejoin="round" stroke-width="2" d="M188.6 142.65h8.75M188.6 148.29h8.75M188.6 153.92h8.75M188.6 159.55h8.75M188.6 165.19h8.75M188.6 170.82h8.75"/><path d="M82.62 57a7.19 7.19 0 0 0-7.19-7.19H30.79a7.19 7.19 0 0 0-7.2 7.19v26.53h59zM23.59 139.62a7.19 7.19 0 0 0 7.19 7.19h44.65a7.19 7.19 0 0 0 7.19-7.19v-33.53h-59z" transform="translate(-7.18 -5.27)" fill="#d8f0f7"/><path fill="#c4e4ec" d="M16.41 78.26h59.03v22.56H16.41z"/><path d="M75.43 147.81H30.79a8.2 8.2 0 0 1-8.19-8.19V57a8.2 8.2 0 0 1 8.19-8.19h44.64A8.2 8.2 0 0 1 83.62 57v82.59a8.2 8.2 0 0 1-8.19 8.22zm-44.64-97a6.2 6.2 0 0 0-6.2 6.19v82.59a6.2 6.2 0 0 0 6.19 6.19h44.65a6.2 6.2 0 0 0 6.19-6.19V57a6.2 6.2 0 0 0-6.19-6.19z" transform="translate(-7.18 -5.27)" fill="#133456"/><rect x="23.06" y="52.2" width="42.7" height="4.27" rx="2.13" ry="2.13" fill="#299ed8"/><rect x="23.06" y="66.53" width="45.15" height="6.82" rx="2.13" ry="2.13" fill="#fff"/><path d="M49.15 68.5h-18.9a1 1 0 0 1 0-2h18.9a1 1 0 1 1 0 2z" transform="translate(-7.18 -5.27)" fill="#92ceeb"/><rect x="23.06" y="87.5" width="45.15" height="6.82" rx="2.13" ry="2.13" fill="#fff"/><path d="M49.15 89.47h-18.9a1 1 0 0 1 0-2h18.9a1 1 0 0 1 0 2z" transform="translate(-7.18 -5.27)" fill="#92ceeb"/><rect x="23.06" y="110.22" width="45.15" height="6.82" rx="2.13" ry="2.13" fill="#fff"/><path d="M49.15 112.19h-18.9a1 1 0 1 1 0-2h18.9a1 1 0 0 1 0 2z" transform="translate(-7.18 -5.27)" fill="#92ceeb"/><rect x="23.06" y="128.02" width="45.15" height="6.82" rx="2.13" ry="2.13" fill="#fff"/><path d="M49.15 130h-18.9a1 1 0 1 1 0-2h18.9a1 1 0 0 1 0 2z" transform="translate(-7.18 -5.27)" fill="#92ceeb"/><path d="M26.67 44.5a1.6 1.6 0 0 1-1.61-1.59L25 35a1.6 1.6 0 1 1 3.2 0v7.91a1.6 1.6 0 0 1-1.53 1.59zM19.28 47.25a1.59 1.59 0 0 1-1.13-.46l-5.63-5.56A1.6 1.6 0 1 1 14.77 39l5.63 5.56a1.6 1.6 0 0 1-1.12 2.74zM16.7 54.58H8.79a1.6 1.6 0 0 1 0-3.2h7.91a1.6 1.6 0 0 1 0 3.2z" transform="translate(-7.18 -5.27)" fill="#ffce0e"/><path d="M141.1 222.09a1 1 0 0 1 0-2 101.61 101.61 0 0 0 57.35-17.6c1.35-.9 2.7-1.87 4.14-3a101.33 101.33 0 0 0 9.22-7.84c1.28-1.22 2.54-2.5 3.76-3.79a98.62 98.62 0 0 0 7.86-9.43c.37-.5.73-1 1.09-1.5a101.26 101.26 0 0 0 14.17-28.57c.38-1.2.71-2.32 1-3.41a99.41 99.41 0 0 0 2.89-14.73 102.92 102.92 0 0 0 .75-12.4 1 1 0 1 1 2 0 104.82 104.82 0 0 1-.77 12.64 101.17 101.17 0 0 1-2.95 15c-.3 1.11-.63 2.26-1 3.49a103.24 103.24 0 0 1-14.45 29.13c-.36.51-.74 1-1.11 1.54a100.5 100.5 0 0 1-8 9.61 100.1 100.1 0 0 1-3.84 3.87 103.59 103.59 0 0 1-9.4 8c-1.46 1.11-2.84 2.1-4.22 3a103.6 103.6 0 0 1-58.49 17.99z" transform="translate(-7.18 -5.27)" fill="#133456"/></svg>