<svg width="140px" height="31px" viewBox="0 0 140 31" version="1.1" xmlns="http://www.w3.org/2000/svg" xmlns:xlink="http://www.w3.org/1999/xlink"><g id="💎-Design" stroke="none" stroke-width="1" fill="none" fill-rule="evenodd"><g id="[Desktop]-About-Us" transform="translate(-163.000000, -181.000000)"><g id="banner"><g id="Tvlk-logo" transform="translate(163.000000, 181.000000)"><g id="Icon-Blue-Copy" transform="translate(111.000000, 0.000000)"><path d="M16.4663941,7.7568641 C21.945389,4.28586677 28.823706,3.61941566 28.823706,3.61941566 C28.823706,3.61941566 21.5259134,11.8839165 19.7416291,15.702218 C19.1906611,17.3678703 20.3440937,18.7228346 20.3440937,18.7228346 C20.3440937,18.7228346 17.1476554,15.1560335 16.4663941,7.7568641 Z" id="Path-7" fill="#FFFFFF"></path><path d="M18.8386536,6.45258698 C18.7077148,11.9087401 19.1336127,15.0394147 19.5984491,16.8109128 C19.6329084,17.3584913 19.8122824,17.8280904 19.9864496,18.1648544 C19.6428136,17.659732 19.1864137,16.952815 18.7065361,16.1080007 C17.8101843,14.2925223 16.8129185,11.5204598 16.4663941,7.7568641 C17.2371374,7.26859064 18.0355714,6.83581556 18.8386536,6.45258698 Z" id="Path-7-Copy" fill="#F0F0F0"></path><path d="M11.5541455,10.9858145 C11.5541455,10.9858145 11.1935947,9.72366743 11.0693814,9.35963401 C10.7347997,8.37907202 10.3922808,7.38213916 10.3922807,5.68063402 C10.3922807,3.34744547 14.3810673,0.858103452 16.8121305,0.0763519549 C16.1527342,8.56780506 17.110542,11.1668513 17.992861,13.9893299 C20.0807965,20.9345025 24.8494751,21.9387518 25.3204271,22.4095551 C24.1045769,22.1477849 24.798539,22.7128714 24.798539,22.7128714 C24.798539,22.7128714 22.857459,21.3673585 18.9490991,20.2658157 C15.0407391,19.164273 11.9914191,18.9956915 10.1259702,17.9400865 C8.68935515,16.8648994 8.64309912,15.9890314 7.96038055,15.4011237 C5.71759065,13.4697959 0.0710155314,12.6575934 0.0710155314,12.6575934 L4.92900222,13.4462159 C4.92900222,13.4462159 5.59686258,13.4462157 6.38507879,13.1641754 C6.55475036,13.1420662 7.09558993,12.5276178 8.26710477,12.9160426 C8.74928438,13.0742582 8.61373735,13.2462794 9.99382118,13.6329949 C11.7428382,14.1230897 11.5541455,10.9858145 11.5541455,10.9858145 Z" id="Path-6" fill="#FFFFFF"></path></g><path d="M1.95193705,25.2381616 C1.95193705,30.1810585 5.76708673,30.7660167 7.68944897,30.7660167 C8.28094504,30.7660167 8.6949923,30.7075209 8.6949923,30.7075209 L8.6949923,28.1922006 C8.6949923,28.1922006 8.42881906,28.2506964 8.01477181,28.2506964 C6.92050407,28.2506964 4.82069301,27.8704735 4.82069301,24.9164345 L4.82069301,18.3356546 L8.42881906,18.3356546 L8.42881906,16.0543175 L4.82069301,16.0543175 L4.82069301,11.7841226 L2.04066146,11.7841226 L2.04066146,16.0543175 L-8.8817842e-16,16.0543175 L-8.8817842e-16,18.3356546 L1.95193705,18.3356546 L1.95193705,25.2381616 Z M11.3379031,30.6490251 L14.2066591,30.6490251 L14.2066591,24.5947075 C14.2066591,23.6880223 14.2953835,22.781337 14.5615568,21.9331476 C15.2417772,19.7395543 16.9275411,18.4526462 18.7611789,18.4526462 C19.2048009,18.4526462 19.5892734,18.54039 19.5892734,18.54039 L19.5892734,15.7325905 C19.5892734,15.7325905 19.2343757,15.6740947 18.8499033,15.6740947 C16.5430686,15.6740947 14.7981552,17.3704735 14.1179347,19.5348189 L14.0587851,19.5348189 C14.0587851,19.5348189 14.1179347,19.0376045 14.1179347,18.4233983 L14.1179347,15.8495822 L11.3379031,15.8495822 L11.3379031,30.6490251 Z M20.5521816,26.4958217 C20.5521816,29.4498607 23.0660399,31 25.6390478,31 C29.2175991,31 30.430166,28.0752089 30.430166,28.0752089 L30.4893156,28.0752089 C30.4893156,28.0752089 30.430166,28.5724234 30.430166,29.2451253 L30.430166,30.6490251 L33.0918984,30.6490251 L33.0918984,21.2896936 C33.0918984,17.545961 30.9625125,15.4986072 27.1769376,15.4986072 C23.7462604,15.4986072 21.5872997,17.2534819 21.5872997,17.2534819 L22.7702919,19.3300836 C22.7702919,19.3300836 24.6335045,17.8969359 26.9403392,17.8969359 C28.8331266,17.8969359 30.2231424,18.7158774 30.2231424,21.143454 L30.2231424,21.4066852 L29.5724967,21.4066852 C27.0586384,21.4066852 20.5521816,21.6114206 20.5521816,26.4958217 L20.5521816,26.4958217 Z M23.4505123,26.3495822 C23.4505123,23.6880223 27.3543864,23.5417827 29.5133471,23.5417827 L30.2527172,23.5417827 L30.2527172,24.0097493 C30.2527172,26.2033426 28.6852526,28.718663 26.2601187,28.718663 C24.3969061,28.718663 23.4505123,27.5487465 23.4505123,26.3495822 L23.4505123,26.3495822 Z M40.3484786,30.6490251 L43.6608566,30.6490251 L49.1913449,15.8495822 L46.1747149,15.8495822 L42.5370141,25.8523677 C42.241266,26.6713092 42.0342424,27.8704735 42.0046676,27.8704735 L41.945518,27.8704735 C41.9159432,27.8704735 41.7384944,26.6713092 41.4427463,25.8523677 L37.8050455,15.8495822 L34.7588407,15.8495822 L40.3484786,30.6490251 Z M49.9472295,23.2493036 C49.9472295,27.6364903 53.1708831,31 57.8732769,31 C61.4518281,31 63.6699384,28.8941504 63.6699384,28.8941504 L62.4869463,26.8175487 C62.4869463,26.8175487 60.6237336,28.5431755 58.0507257,28.5431755 C55.3889934,28.5431755 53.0525839,26.9052925 52.9047099,23.6587744 L63.8178124,23.6587744 C63.8178124,23.6587744 63.9065368,22.810585 63.9065368,22.4303621 C63.9065368,18.5988858 61.6588518,15.4986072 57.4296548,15.4986072 C53.1708831,15.4986072 49.9472295,18.54039 49.9472295,23.2493036 L49.9472295,23.2493036 Z M52.9934343,21.5236769 C53.4074815,19.0961003 55.1819697,17.7506964 57.3705052,17.7506964 C59.2928675,17.7506964 60.8899069,18.9791086 60.9786313,21.5236769 L52.9934343,21.5236769 Z M66.5552088,26.6128134 C66.5552088,30.3272981 68.9507679,30.7660167 70.5773822,30.7660167 C71.0801538,30.7660167 71.5237759,30.7075209 71.5237759,30.7075209 L71.5237759,28.1922006 C71.5237759,28.1922006 71.2871774,28.2214485 71.0210042,28.2214485 C70.1337601,28.2214485 69.4239648,27.8997214 69.4239648,26.1155989 L69.4239648,10 L66.5552088,10 L66.5552088,26.6128134 Z M72.8120069,23.2200557 C72.8120069,27.724234 76.420133,31 80.8859283,31 C85.3517237,31 88.9598497,27.724234 88.9598497,23.2200557 C88.9598497,18.7451253 85.3517237,15.4986072 80.8859283,15.4986072 C76.420133,15.4986072 72.8120069,18.7451253 72.8120069,23.2200557 L72.8120069,23.2200557 Z M75.7399125,23.2200557 C75.7399125,20.1490251 78.076322,17.9554318 80.8859283,17.9554318 C83.7251095,17.9554318 86.0319442,20.1490251 86.0319442,23.2200557 C86.0319442,26.3203343 83.7251095,28.5431755 80.8859283,28.5431755 C78.076322,28.5431755 75.7399125,26.3203343 75.7399125,23.2200557 L75.7399125,23.2200557 Z M91.7802094,30.6490251 L94.6489654,30.6490251 L94.6489654,23.6880223 L96.8079261,23.6880223 L101.303296,30.6490251 L104.645249,30.6490251 L99.1147607,22.4303621 L99.1147607,22.3718663 L104.083328,15.8495822 L100.830099,15.8495822 L96.7487764,21.2896936 L94.6489654,21.2896936 L94.6489654,10 L91.7802094,10 L91.7802094,30.6490251 Z M105.460283,26.4958217 C105.460283,29.4498607 107.974142,31 110.547149,31 C114.125701,31 115.338268,28.0752089 115.338268,28.0752089 L115.397417,28.0752089 C115.397417,28.0752089 115.338268,28.5724234 115.338268,29.2451253 L115.338268,30.6490251 L118,30.6490251 L118,21.2896936 C118,17.545961 115.870614,15.4986072 112.085039,15.4986072 C108.654362,15.4986072 106.495401,17.2534819 106.495401,17.2534819 L107.678393,19.3300836 C107.678393,19.3300836 109.541606,17.8969359 111.848441,17.8969359 C113.741228,17.8969359 115.131244,18.7158774 115.131244,21.143454 L115.131244,21.4066852 L114.480598,21.4066852 C111.96674,21.4066852 105.460283,21.6114206 105.460283,26.4958217 L105.460283,26.4958217 Z M108.358614,26.3495822 C108.358614,23.6880223 112.262488,23.5417827 114.421449,23.5417827 L115.160819,23.5417827 L115.160819,24.0097493 C115.160819,26.2033426 113.593354,28.718663 111.16822,28.718663 C109.305008,28.718663 108.358614,27.5487465 108.358614,26.3495822 L108.358614,26.3495822 Z" id="traveloka" fill="#FFFFFF"></path></g></g></g></g></svg>